<?xml version="1.0" encoding="utf-8"?>
<svg version="1.1" xmlns:xlink="http://www.w3.org/1999/xlink" width="20px" height="21px" xmlns="http://www.w3.org/2000/svg">
  <g transform="matrix(1 0 0 1 -252 -625 )">
    <path d="M 14.5600000000004 1.66000000000008  L 13.8800000000001 0  L 1.23999999999978 5.15000000000009  C 0.510000000000218 5.43000000000006  0 6.17000000000007  0 7  C 0 7  0 19  0 19  C 0 20.0999999999999  0.890000000000327 21  2 21  C 2 21  18 21  18 21  C 19.1099999999997 21  20 20.0999999999999  20 19  C 20 19  20 7  20 7  C 20 5.8900000000001  19.1099999999997 5  18 5  C 18 5  6.30000000000018 5  6.30000000000018 5  L 14.5600000000004 1.66000000000008  Z M 5 13  C 6.65999999999985 13  8 14.3399999999999  8 16  C 8 17.6600000000001  6.65999999999985 19  5 19  C 3.34000000000015 19  2 17.6600000000001  2 16  C 2 14.3399999999999  3.34000000000015 13  5 13  Z M 18 7  L 18 11  L 16 11  L 16 9  L 14 9  L 14 11  L 2 11  L 2 7  L 18 7  Z " fill-rule="nonzero" fill="#ffffff" stroke="none" transform="matrix(1 0 0 1 252 625 )" />
  </g>
</svg>