<?xml version="1.0" encoding="utf-8"?>
<svg version="1.1" xmlns:xlink="http://www.w3.org/1999/xlink" width="16px" height="4px" xmlns="http://www.w3.org/2000/svg">
  <g transform="matrix(1 0 0 1 -344 -548 )">
    <path d="M 2 4  C 3.09999999999991 4  4 3.10000000000036  4 2  C 4 0.899999999999636  3.09999999999991 0  2 0  C 0.900000000000091 0  0 0.899999999999636  0 2  C 0 3.10000000000036  0.900000000000091 4  2 4  Z M 14 4  C 15.0999999999999 4  16 3.10000000000036  16 2  C 16 0.899999999999636  15.0999999999999 0  14 0  C 12.9000000000001 0  12 0.899999999999636  12 2  C 12 3.10000000000036  12.9000000000001 4  14 4  Z M 10 2  C 10 0.899999999999636  9.09999999999991 0  8 0  C 6.90000000000009 0  6 0.899999999999636  6 2  C 6 3.10000000000036  6.90000000000009 4  8 4  C 9.09999999999991 4  10 3.10000000000036  10 2  Z " fill-rule="nonzero" fill="#ffffff" stroke="none" transform="matrix(1 0 0 1 344 548 )" />
  </g>
</svg>