<?xml version="1.0" encoding="utf-8"?>
<svg version="1.1" xmlns:xlink="http://www.w3.org/1999/xlink" width="38px" height="10px" xmlns="http://www.w3.org/2000/svg">
  <g transform="matrix(1 0 0 1 -168 -41 )">
    <path d="M 17.7966767405687 9.82061357554264  C 18.1965574140359 9.96015885631514  18.6072466952965 10.0039851109042  18.9999999994498 9.96385261680576  C 19.392753303905 10.0039851109896  19.8034425855749 9.96015885645105  20.2033232594313 9.8206135755428  L 35.378082757552 4.52511865586938  C 36.7058742136378 4.06176285039795  37.3454417142266 2.74163648375959  36.8316452588897 1.52483145896409  C 36.3178488035528 0.308026434168586  34.8708868731501 -0.283969381014644  33.5430954170643 0.179386424456786  L 18.9999316821813 5.25442739168036  L 4.45690458293575 0.179386424456735  C 3.12911312684992 -0.283969381014644  1.68215119644719 0.308026434168586  1.16835474111122 1.52483145896409  C 0.654558285775238 2.74163648375959  1.29412578636402 4.06176285039795  2.62191724244985 4.52511865586933  L 17.7966767405687 9.82061357554264  Z " fill-rule="nonzero" fill="#ffffff" stroke="none" fill-opacity="0.149019607843137" transform="matrix(1 0 0 1 168 41 )" />
  </g>
</svg>