<?xml version="1.0" encoding="utf-8"?>
<svg version="1.1" xmlns:xlink="http://www.w3.org/1999/xlink" width="18px" height="18px" xmlns="http://www.w3.org/2000/svg">
  <g transform="matrix(1 0 0 1 -179 -629 )">
    <path d="M 17.4899999999998 16  L 12.5 11  L 11.71 11  C 11.71 11  11.4300000000003 10.73  11.4300000000003 10.73  C 12.4099999999999 9.59000000000003  13 8.11000000000001  13 6.5  C 13 2.90999999999997  10.0900000000001 0  6.5 0  C 2.90999999999985 0  0 2.90999999999997  0 6.5  C 0 10.09  2.90999999999985 13  6.5 13  C 8.10999999999967 13  9.59000000000015 12.41  10.7299999999996 11.4299999999999  C 10.7299999999996 11.4299999999999  11 11.71  11 11.71  L 11 12.5  L 16 17.49  L 17.4899999999998 16  Z M 11 6.5  C 11 8.99000000000001  8.98999999999978 11  6.5 11  C 4.01000000000022 11  2 8.99000000000001  2 6.5  C 2 4.00999999999999  4.01000000000022 2  6.5 2  C 8.98999999999978 2  11 4.00999999999999  11 6.5  Z " fill-rule="nonzero" fill="#ffffff" stroke="none" transform="matrix(1 0 0 1 179 629 )" />
  </g>
</svg>