<?xml version="1.0" encoding="utf-8"?>
<svg version="1.1" xmlns:xlink="http://www.w3.org/1999/xlink" width="19px" height="19px" xmlns="http://www.w3.org/2000/svg">
  <g transform="matrix(1 0 0 1 -15 -41 )">
    <path d="M 5 17.9444444444444  C 5 17.9444444444444  5 1.05555555555556  5 1.05555555555556  C 5 0.474999999999999  4.55 0  4 0  C 4 0  1 0  1 0  C 0.449999999999999 0  0 0.474999999999999  0 1.05555555555556  C 0 1.05555555555556  0 17.9444444444444  0 17.9444444444444  C 0 18.525  0.449999999999999 19  1 19  C 1 19  4 19  4 19  C 4.55 19  5 18.525  5 17.9444444444444  Z M 19 17.9444444444444  C 19 17.9444444444444  19 1.05555555555556  19 1.05555555555556  C 19 0.474999999999999  18.55 0  18 0  C 18 0  15 0  15 0  C 14.45 0  14 0.474999999999999  14 1.05555555555556  C 14 1.05555555555556  14 17.9444444444444  14 17.9444444444444  C 14 18.525  14.45 19  15 19  C 15 19  18 19  18 19  C 18.55 19  19 18.525  19 17.9444444444444  Z M 12 1.05555555555556  C 12 0.474999999999999  11.55 0  11 0  C 11 0  8 0  8 0  C 7.45 0  7 0.474999999999999  7 1.05555555555556  C 7 1.05555555555556  7 17.9444444444444  7 17.9444444444444  C 7 18.525  7.45 19  8 19  C 8 19  11 19  11 19  C 11.55 19  12 18.525  12 17.9444444444444  C 12 17.9444444444444  12 1.05555555555556  12 1.05555555555556  Z " fill-rule="nonzero" fill="#ffffff" stroke="none" transform="matrix(1 0 0 1 15 41 )" />
  </g>
</svg>