<?xml version="1.0" encoding="utf-8"?>
<svg version="1.1" xmlns:xlink="http://www.w3.org/1999/xlink" width="19px" height="18px" xmlns="http://www.w3.org/2000/svg">
  <g transform="matrix(1 0 0 1 -28 -628 )">
    <path d="M 5 17  C 5 17  5 1  5 1  C 5 0.449999999999818  4.55000000000018 0  4 0  C 4 0  1 0  1 0  C 0.449999999999818 0  0 0.449999999999818  0 1  C 0 1  0 17  0 17  C 0 17.5500000000002  0.449999999999818 18  1 18  C 1 18  4 18  4 18  C 4.55000000000018 18  5 17.5500000000002  5 17  Z M 19 17  C 19 17  19 1  19 1  C 19 0.449999999999818  18.5500000000002 0  18 0  C 18 0  15 0  15 0  C 14.4499999999998 0  14 0.449999999999818  14 1  C 14 1  14 17  14 17  C 14 17.5500000000002  14.4499999999998 18  15 18  C 15 18  18 18  18 18  C 18.5500000000002 18  19 17.5500000000002  19 17  Z M 12 1  C 12 0.449999999999818  11.5500000000002 0  11 0  C 11 0  8 0  8 0  C 7.44999999999982 0  7 0.449999999999818  7 1  C 7 1  7 17  7 17  C 7 17.5500000000002  7.44999999999982 18  8 18  C 8 18  11 18  11 18  C 11.5500000000002 18  12 17.5500000000002  12 17  C 12 17  12 1  12 1  Z " fill-rule="nonzero" fill="#aaaaaa" stroke="none" transform="matrix(1 0 0 1 28 628 )" />
  </g>
</svg>