<?xml version="1.0" encoding="utf-8"?>
<svg version="1.1" xmlns:xlink="http://www.w3.org/1999/xlink" width="14px" height="4px" xmlns="http://www.w3.org/2000/svg">
  <g transform="matrix(1 0 0 1 -109 -296 )">
    <path d="M 2.33333333333348 3.55555555555566  C 3.18888888888887 3.55555555555566  3.88888888888914 2.85555555555584  3.88888888888914 2  C 3.88888888888914 1.14444444444416  3.18888888888887 0.444444444444343  2.33333333333348 0.444444444444343  C 1.4777777777781 0.444444444444343  0.777777777777828 1.14444444444416  0.777777777777828 2  C 0.777777777777828 2.85555555555584  1.4777777777781 3.55555555555566  2.33333333333348 3.55555555555566  Z M 11.666666666667 3.55555555555566  C 12.5222222222228 3.55555555555566  13.2222222222226 2.85555555555584  13.2222222222226 2  C 13.2222222222226 1.14444444444416  12.5222222222228 0.444444444444343  11.666666666667 0.444444444444343  C 10.8111111111111 0.444444444444343  10.1111111111113 1.14444444444416  10.1111111111113 2  C 10.1111111111113 2.85555555555584  10.8111111111111 3.55555555555566  11.666666666667 3.55555555555566  Z M 8.55555555555566 2  C 8.55555555555566 1.14444444444416  7.85555555555538 0.444444444444343  7 0.444444444444343  C 6.14444444444462 0.444444444444343  5.44444444444434 1.14444444444416  5.44444444444434 2  C 5.44444444444434 2.85555555555584  6.14444444444462 3.55555555555566  7 3.55555555555566  C 7.85555555555538 3.55555555555566  8.55555555555566 2.85555555555584  8.55555555555566 2  Z " fill-rule="nonzero" fill="#8d8d8d" stroke="none" transform="matrix(1 0 0 1 109 296 )" />
  </g>
</svg>