<?xml version="1.0" encoding="utf-8"?>
<svg version="1.1" xmlns:xlink="http://www.w3.org/1999/xlink" width="20px" height="20px" xmlns="http://www.w3.org/2000/svg">
  <g transform="matrix(1 0 0 1 -30 -514 )">
    <path d="M 19.2693316039315 12.63  C 19.2693316039315 12.63  17.1593316039315 10.98  17.1593316039315 10.98  C 17.1993316039315 10.66  17.2293316039315 10.34  17.2293316039315 10  C 17.2293316039315 9.66  17.1993316039315 9.34  17.1593316039315 9.02  C 17.1593316039315 9.02  19.2693316039315 7.37  19.2693316039315 7.37  C 19.4593316039315 7.22  19.5093316039315 6.95  19.3893316039315 6.73  C 19.3893316039315 6.73  17.3893316039315 3.27  17.3893316039315 3.27  C 17.2693316039315 3.05  16.9993316039316 2.97  16.7793316039316 3.05  C 16.7793316039316 3.05  14.2893316039315 4.05  14.2893316039315 4.05  C 13.7693316039315 3.65  13.2093316039315 3.32  12.5993316039315 3.07  C 12.5993316039315 3.07  12.2193316039316 0.42  12.2193316039316 0.42  C 12.1893316039315 0.18  11.9793316039315 0  11.7293316039315 0  C 11.7293316039315 0  7.72933160393154 0  7.72933160393154 0  C 7.47933160393154 0  7.26933160393155 0.18  7.23933160393155 0.42  C 7.23933160393155 0.42  6.85933160393155 3.07  6.85933160393155 3.07  C 6.24933160393155 3.32  5.68933160393155 3.66  5.16933160393155 4.05  C 5.16933160393155 4.05  2.67933160393154 3.05  2.67933160393154 3.05  C 2.44933160393154 2.96  2.18933160393155 3.05  2.06933160393154 3.27  C 2.06933160393154 3.27  0.0693316039315448 6.73  0.0693316039315448 6.73  C -0.0606683960684506 6.95  -0.000668396068448374 7.22  0.189331603931549 7.37  C 0.189331603931549 7.37  2.29933160393155 9.02  2.29933160393155 9.02  C 2.25933160393154 9.34  2.22933160393154 9.67  2.22933160393154 10  C 2.22933160393154 10.33  2.25933160393154 10.66  2.29933160393155 10.98  C 2.29933160393155 10.98  0.189331603931549 12.63  0.189331603931549 12.63  C -0.000668396068448374 12.78  -0.0506683960684597 13.05  0.0693316039315448 13.27  C 0.0693316039315448 13.27  2.06933160393154 16.73  2.06933160393154 16.73  C 2.18933160393155 16.95  2.45933160393155 17.03  2.67933160393154 16.95  C 2.67933160393154 16.95  5.16933160393155 15.95  5.16933160393155 15.95  C 5.68933160393155 16.35  6.24933160393155 16.68  6.85933160393155 16.93  C 6.85933160393155 16.93  7.23933160393155 19.58  7.23933160393155 19.58  C 7.26933160393155 19.82  7.47933160393154 20  7.72933160393154 20  C 7.72933160393154 20  11.7293316039315 20  11.7293316039315 20  C 11.9793316039315 20  12.1893316039315 19.82  12.2193316039316 19.58  C 12.2193316039316 19.58  12.5993316039315 16.93  12.5993316039315 16.93  C 13.2093316039315 16.68  13.7693316039315 16.34  14.2893316039315 15.95  C 14.2893316039315 15.95  16.7793316039316 16.95  16.7793316039316 16.95  C 17.0093316039315 17.04  17.2693316039315 16.95  17.3893316039316 16.73  C 17.3893316039316 16.73  19.3893316039316 13.27  19.3893316039316 13.27  C 19.5093316039315 13.05  19.4593316039316 12.78  19.2693316039315 12.63  Z M 13.2293316039313 10  C 13.2293316039313 11.93  11.6593316039313 13.5  9.72933160393131 13.5  C 7.79933160393132 13.5  6.22933160393131 11.93  6.22933160393131 10  C 6.22933160393131 8.07  7.79933160393132 6.5  9.72933160393131 6.5  C 11.6593316039313 6.5  13.2293316039313 8.07  13.2293316039313 10  Z " fill-rule="nonzero" fill="#3b5998" stroke="none" transform="matrix(1 0 0 1 30 514 )" />
  </g>
</svg>