<?xml version="1.0" encoding="utf-8"?>
<svg version="1.1" xmlns:xlink="http://www.w3.org/1999/xlink" width="20px" height="20px" xmlns="http://www.w3.org/2000/svg">
  <g transform="matrix(1 0 0 1 -29 -233 )">
    <path d="M 11.8181818181818 20  C 12.318181818182 20  12.7272727272727 19.3571428571431  12.7272727272727 18.5714285714286  C 12.7272727272727 18.5714285714286  12.7272727272727 1.42857142857143  12.7272727272727 1.42857142857143  C 12.7272727272727 0.642857142856883  12.318181818182 0  11.8181818181818 0  C 11.8181818181818 0  0.909090909090909 0  0.909090909090909 0  C 0.409090909090744 0  0 0.642857142856883  0 1.42857142857143  C 0 1.42857142857143  0 18.5714285714286  0 18.5714285714286  C 0 19.3571428571431  0.409090909090744 20  0.909090909090909 20  C 0.909090909090909 20  11.8181818181818 20  11.8181818181818 20  Z M 18 0  L 18 20  L 20 20  L 20 0  L 18 0  Z M 14.5454545454545 20  L 16 20  L 16 0  L 14.5454545454545 0  L 14.5454545454545 20  Z M 6.36363636363636 10.3571428571429  C 5.23636363636383 10.3571428571429  4.31818181818182 8.9142857142854  4.31818181818182 7.14285714285714  C 4.31818181818182 5.37142857142888  5.23636363636383 3.92857142857143  6.36363636363636 3.92857142857143  C 7.49090909090889 3.92857142857143  8.40909090909091 5.37142857142888  8.40909090909091 7.14285714285714  C 8.40909090909091 8.9142857142854  7.49090909090889 10.3571428571429  6.36363636363636 10.3571428571429  Z M 10.4545454545455 16.0714285714286  C 10.4545454545455 16.0714285714286  10.4545454545455 17.1428571428571  10.4545454545455 17.1428571428571  L 2.27272727272727 17.1428571428571  C 2.27272727272727 17.1428571428571  2.27272727272727 16.0714285714286  2.27272727272727 16.0714285714286  C 2.27272727272727 13.9285714285714  5 12.8571428571429  6.36363636363636 12.8571428571429  C 7.72727272727273 12.8571428571429  10.4545454545455 13.9285714285714  10.4545454545455 16.0714285714286  Z " fill-rule="nonzero" fill="#3b5998" stroke="none" transform="matrix(1 0 0 1 29 233 )" />
  </g>
</svg>