<?xml version="1.0" encoding="utf-8"?>
<svg version="1.1" xmlns:xlink="http://www.w3.org/1999/xlink" width="20px" height="20px" xmlns="http://www.w3.org/2000/svg">
  <g transform="matrix(1 0 0 1 -30 -373 )">
    <path d="M 10 20  C 15.52 20  20 15.52  20 10  C 20 4.48000000000002  15.52 0  10 0  C 4.48000000000002 0  0 4.48000000000002  0 10  C 0 15.52  4.48000000000002 20  10 20  Z M 10 5.5  C 12.4899999999998 5.5  14.5 7.51000000000022  14.5 10  C 14.5 12.4899999999998  12.4899999999998 14.5  10 14.5  C 7.51000000000022 14.5  5.5 12.4899999999998  5.5 10  C 5.5 7.51000000000022  7.51000000000022 5.5  10 5.5  Z M 11 10  C 11 9.44999999999982  10.5500000000002 9  10 9  C 9.44999999999982 9  9 9.44999999999982  9 10  C 9 10.5500000000002  9.44999999999982 11  10 11  C 10.5500000000002 11  11 10.5500000000002  11 10  Z " fill-rule="nonzero" fill="#7f7f7f" stroke="none" transform="matrix(1 0 0 1 30 373 )" />
  </g>
</svg>