<?xml version="1.0" encoding="utf-8"?>
<svg version="1.1" xmlns:xlink="http://www.w3.org/1999/xlink" width="14px" height="20px" xmlns="http://www.w3.org/2000/svg">
  <g transform="matrix(1 0 0 1 -30 -116 )">
    <path d="M 14 7  C 14 3.13000000000011  10.8699999999999 0  7 0  C 3.13000000000011 0  0 3.13000000000011  0 7  C 0 12.25  7 20  7 20  C 7 20  14 12.25  14 7  Z M 9.5 7  C 9.5 8.38000000000011  8.38000000000011 9.5  7 9.5  C 5.61999999999989 9.5  4.5 8.38000000000011  4.5 7  C 4.5 5.61999999999989  5.61999999999989 4.5  7 4.5  C 8.38000000000011 4.5  9.5 5.61999999999989  9.5 7  Z " fill-rule="nonzero" fill="#d9001b" stroke="none" fill-opacity="0.737254901960784" transform="matrix(1 0 0 1 30 116 )" />
  </g>
</svg>