<?xml version="1.0" encoding="utf-8"?>
<svg version="1.1" xmlns:xlink="http://www.w3.org/1999/xlink" width="20px" height="20px" xmlns="http://www.w3.org/2000/svg">
  <g transform="matrix(1 0 0 1 -30 -304 )">
    <path d="M 20 14  C 20 14  20 2  20 2  C 20 0.900000000000091  19.0999999999999 0  18 0  C 18 0  6 0  6 0  C 4.90000000000009 0  4 0.900000000000091  4 2  C 4 2  4 14  4 14  C 4 15.0999999999999  4.90000000000009 16  6 16  C 6 16  18 16  18 16  C 19.0999999999999 16  20 15.0999999999999  20 14  Z M 12 3  L 16 3  L 16 5  L 13 5  C 13 5  13 10.5  13 10.5  C 13 11.8800000000001  11.8800000000001 13  10.5 13  C 9.11999999999989 13  8 11.8800000000001  8 10.5  C 8 9.11999999999989  9.11999999999989 8  10.5 8  C 11.0700000000002 8  11.5799999999999 8.19000000000005  12 8.51000000000022  C 12 8.51000000000022  12 3  12 3  Z M 2 18  L 2 4  L 0 4  C 0 4  0 18  0 18  C 0 19.0999999999999  0.900000000000091 20  2 20  C 2 20  16 20  16 20  L 16 18  L 2 18  Z " fill-rule="nonzero" fill="#3b5998" stroke="none" transform="matrix(1 0 0 1 30 304 )" />
  </g>
</svg>