<?xml version="1.0" encoding="utf-8"?>
<svg version="1.1" xmlns:xlink="http://www.w3.org/1999/xlink" width="22px" height="21px" xmlns="http://www.w3.org/2000/svg">
  <g transform="matrix(1 0 0 1 -323 -76 )">
    <path d="M 20 17  C 21.1100000000001 17  22 16.1099999999999  22 15  C 22 15  22 4  22 4  L 17 4  C 17 4  17 2  17 2  C 17 0.8900000000001  16.1100000000001 0  15 0  C 15 0  11 0  11 0  C 9.88999999999987 0  9 0.8900000000001  9 2  C 9 2  9 4  9 4  L 4 4  C 4 4  4 15  4 15  C 4 16.1099999999999  4.88999999999987 17  6 17  C 6 17  20 17  20 17  Z M 16 21  C 17.1100000000001 21  18 20.1099999999999  18 19  C 18 19  2 19  2 19  L 2 8  L 0 8  C 0 8  0 19  0 19  C 0 20.1099999999999  0.889999999999873 21  2 21  C 2 21  16 21  16 21  Z M 15 4  L 11 4  L 11 2  L 15 2  L 15 4  Z M 16.5 10  L 11 14  L 11 7  L 16.5 10  Z " fill-rule="nonzero" fill="#ffffff" stroke="none" transform="matrix(1 0 0 1 323 76 )" />
  </g>
</svg>