<?xml version="1.0" encoding="utf-8"?>
<svg version="1.1" xmlns:xlink="http://www.w3.org/1999/xlink" width="12px" height="19px" xmlns="http://www.w3.org/2000/svg">
  <g transform="matrix(1 0 0 1 -338 -105 )">
    <path d="M 3 10  C 3 10  3 3  3 3  C 3 1.34314575050757  4.34314575050757 0  6 0  C 7.65685424949243 0  9 1.34314575050757  9 3  C 9 3  9 10  9 10  C 9 11.6568542494924  7.65685424949243 13  6 13  C 4.34314575050757 13  3 11.6568542494924  3 10  Z M 12 7.25  C 12 6.83578643762689  11.6642135623733 6.5  11.25 6.5  C 10.8357864376267 6.5  10.5 6.83578643762689  10.5 7.25  C 10.5 7.25  10.5 10  10.5 10  C 10.5 12.4852813742386  8.48528137423818 14.5  6 14.5  C 3.51471862576182 14.5  1.5 12.4852813742386  1.5 10  C 1.5 10  1.5 7.25  1.5 7.25  C 1.5 6.83578643762689  1.16421356237333 6.5  0.75 6.5  C 0.335786437626666 6.5  0 6.83578643762689  0 7.25  C 0 7.25  0 10  0 10  C 0.00148134436949476 13.0225955435735  2.25111104828284 15.5721758746749  5.25 15.95  C 5.25 15.95  5.25 17.5  5.25 17.5  C 5.25 17.5  3.25 17.5  3.25 17.5  C 2.83578643762667 17.5  2.5 17.8357864376269  2.5 18.25  C 2.5 18.6642135623731  2.83578643762667 19  3.25 19  C 3.25 19  8.75 19  8.75 19  C 9.16421356237333 19  9.5 18.6642135623731  9.5 18.25  C 9.5 17.8357864376269  9.16421356237333 17.5  8.75 17.5  C 8.75 17.5  6.75 17.5  6.75 17.5  C 6.75 17.5  6.75 15.95  6.75 15.95  C 9.74888895171716 15.5721758746749  11.9985186556305 13.0225955435735  12 10  C 12 10  12 7.25  12 7.25  Z " fill-rule="nonzero" fill="#ffffff" stroke="none" transform="matrix(1 0 0 1 338 105 )" />
  </g>
</svg>