<?xml version="1.0" encoding="utf-8"?>
<svg version="1.1" xmlns:xlink="http://www.w3.org/1999/xlink" width="13px" height="13px" xmlns="http://www.w3.org/2000/svg">
  <g transform="matrix(1 0 0 1 -25 -108 )">
    <path d="M 5.09132973131636 10.1826594626327  C 6.22424940196606 10.1826594626327  7.27074276922258 9.81262446968049  8.11654189913725 9.1868224177224  C 8.14337543398142 9.22009623562917  8.17245426228146 9.25249616451492  8.2037543461679 9.2837962484009  L 11.5467171402756 12.6267590425095  C 11.9211289732157 13.00117087545  12.4529172084635 13.0577440919651  12.7553267658382 12.7553345345905  C 13.0577363232128 12.4529249772158  13.0011631066973 11.9211367419684  12.6267512737572 11.5467249090279  L 9.28378847964859 8.20376211492021  C 9.25248879258834 8.1724624278595  9.22008928841706 8.14338394006336  9.18681591462746 8.11655068833807  C 9.81262190617235 7.27075001904723  10.1826594626327 6.22425332624789  10.1826594626327 5.09132973131636  C 10.1826594626327 2.27946596450693  7.9031934981258 0  5.09132973131636 0  C 2.27946596450693 0  0 2.27946596450693  0 5.09132973131636  C 0 7.9031934981258  2.27946596450693 10.1826594626327  5.09132973131636 10.1826594626327  Z M 9.16439351636973 5.09132973131636  C 9.16439351636973 7.34082074476373  7.34082074476419 9.16439351636927  5.09132973131636 9.16439351636927  C 2.841838717869 9.16439351636927  1.01826594626345 7.34082074476373  1.01826594626345 5.09132973131636  C 1.01826594626345 2.841838717869  2.841838717869 1.01826594626345  5.09132973131636 1.01826594626345  C 7.34082074476419 1.01826594626345  9.16439351636973 2.841838717869  9.16439351636973 5.09132973131636  Z " fill-rule="nonzero" fill="#ffffff" stroke="none" transform="matrix(1 0 0 1 25 108 )" />
  </g>
</svg>