<?xml version="1.0" encoding="utf-8"?>
<svg version="1.1" xmlns:xlink="http://www.w3.org/1999/xlink" width="345px" height="48px" xmlns="http://www.w3.org/2000/svg">
  <g transform="matrix(1 0 0 1 -15 -604 )">
    <path d="M 16 610  A 5 5 0 0 1 21 605 L 354 605  A 5 5 0 0 1 359 610 L 359 646  A 5 5 0 0 1 354 651 L 21 651  A 5 5 0 0 1 16 646 L 16 610  Z " fill-rule="nonzero" fill="#000000" stroke="none" />
    <path d="M 15.5 610  A 5.5 5.5 0 0 1 21 604.5 L 354 604.5  A 5.5 5.5 0 0 1 359.5 610 L 359.5 646  A 5.5 5.5 0 0 1 354 651.5 L 21 651.5  A 5.5 5.5 0 0 1 15.5 646 L 15.5 610  Z " stroke-width="1" stroke="#ffffff" fill="none" stroke-opacity="0.101960784313725" />
  </g>
</svg>