<?xml version="1.0" encoding="utf-8"?>
<svg version="1.1" xmlns:xlink="http://www.w3.org/1999/xlink" width="18px" height="20px" xmlns="http://www.w3.org/2000/svg">
  <g transform="matrix(1 0 0 1 -327 -76 )">
    <path d="M 18 18  C 18 18  18 4  18 4  C 18 2.89999999999998  17.0999999999999 2  16 2  L 15 2  L 15 0  L 13 0  L 13 2  L 5 2  L 5 0  L 3 0  L 3 2  C 3 2  2 2  2 2  C 0.889999999999873 2  0 2.89999999999998  0 4  C 0 4  0 18  0 18  C 0 19.1  0.889999999999873 20  2 20  C 2 20  16 20  16 20  C 17.0999999999999 20  18 19.1  18 18  Z M 9 11  C 7.34000000000015 11  6 9.65999999999997  6 8  C 6 6.34000000000003  7.34000000000015 5  9 5  C 10.6599999999999 5  12 6.34000000000003  12 8  C 12 9.65999999999997  10.6599999999999 11  9 11  Z M 15 15.9999999999997  C 15 15.9999999999997  15 16.9999999999997  15 17  L 3 17  C 3 16.9999999999997  3 15.9999999999997  3 15.9999999999997  C 3 13.9999999999997  7 12.8999999999996  9 12.8999999999996  C 11 12.8999999999996  15 13.9999999999997  15 15.9999999999997  Z " fill-rule="nonzero" fill="#00ac5a" stroke="none" transform="matrix(1 0 0 1 327 76 )" />
  </g>
</svg>