<?xml version="1.0" encoding="utf-8"?>
<svg version="1.1" xmlns:xlink="http://www.w3.org/1999/xlink" width="20px" height="20px" xmlns="http://www.w3.org/2000/svg">
  <g transform="matrix(1 0 0 1 -328 -626 )">
    <path d="M 19.2693316039313 12.63  C 19.2693316039313 12.63  17.1593316039316 10.98  17.1593316039316 10.98  C 17.1993316039316 10.66  17.2293316039313 10.34  17.2293316039313 10  C 17.2293316039313 9.65999999999997  17.1993316039316 9.34000000000003  17.1593316039316 9.01999999999998  C 17.1593316039316 9.01999999999998  19.2693316039313 7.37  19.2693316039313 7.37  C 19.4593316039318 7.22000000000003  19.509331603932 6.95000000000005  19.3893316039321 6.73000000000002  C 19.3893316039321 6.73000000000002  17.3893316039321 3.26999999999998  17.3893316039321 3.26999999999998  C 17.2693316039313 3.04999999999995  16.9993316039318 2.97000000000003  16.7793316039315 3.04999999999995  C 16.7793316039315 3.04999999999995  14.2893316039317 4.04999999999995  14.2893316039317 4.04999999999995  C 13.7693316039313 3.64999999999998  13.2093316039318 3.32000000000005  12.5993316039312 3.07000000000005  C 12.5993316039312 3.07000000000005  12.219331603932 0.419999999999959  12.219331603932 0.419999999999959  C 12.1893316039314 0.17999999999995  11.9793316039313 0  11.7293316039313 0  C 11.7293316039313 0  7.72933160393131 0  7.72933160393131 0  C 7.47933160393131 0  7.26933160393128 0.17999999999995  7.23933160393153 0.419999999999959  C 7.23933160393153 0.419999999999959  6.85933160393142 3.07000000000005  6.85933160393142 3.07000000000005  C 6.24933160393175 3.32000000000005  5.68933160393135 3.65999999999997  5.16933160393182 4.04999999999995  C 5.16933160393182 4.04999999999995  2.67933160393113 3.04999999999995  2.67933160393113 3.04999999999995  C 2.44933160393157 2.96000000000004  2.18933160393135 3.04999999999995  2.06933160393146 3.26999999999998  C 2.06933160393146 3.26999999999998  0.0693316039314595 6.73000000000002  0.0693316039314595 6.73000000000002  C -0.0606683960686496 6.95000000000005  -0.000668396068249422 7.22000000000003  0.18933160393135 7.37  C 0.18933160393135 7.37  2.29933160393193 9.01999999999998  2.29933160393193 9.01999999999998  C 2.25933160393197 9.34000000000003  2.22933160393131 9.66999999999996  2.22933160393131 10  C 2.22933160393131 10.33  2.25933160393197 10.66  2.29933160393193 10.98  C 2.29933160393193 10.98  0.18933160393135 12.63  0.18933160393135 12.63  C -0.000668396068249422 12.78  -0.0506683960684313 13.05  0.0693316039314595 13.27  C 0.0693316039314595 13.27  2.06933160393146 16.73  2.06933160393146 16.73  C 2.18933160393135 16.95  2.45933160393179 17.03  2.67933160393113 16.95  C 2.67933160393113 16.95  5.16933160393182 15.95  5.16933160393182 15.95  C 5.68933160393135 16.35  6.24933160393175 16.6799999999999  6.85933160393142 16.9299999999999  C 6.85933160393142 16.9299999999999  7.23933160393153 19.58  7.23933160393153 19.58  C 7.26933160393128 19.8200000000001  7.47933160393131 20  7.72933160393131 20  C 7.72933160393131 20  11.7293316039313 20  11.7293316039313 20  C 11.9793316039313 20  12.1893316039314 19.8200000000001  12.219331603932 19.58  C 12.219331603932 19.58  12.5993316039312 16.9299999999999  12.5993316039312 16.9299999999999  C 13.2093316039318 16.6799999999999  13.7693316039313 16.34  14.2893316039317 15.95  C 14.2893316039317 15.95  16.7793316039315 16.95  16.7793316039315 16.95  C 17.009331603932 17.04  17.2693316039313 16.95  17.3893316039321 16.73  C 17.3893316039321 16.73  19.3893316039321 13.27  19.3893316039321 13.27  C 19.509331603932 13.05  19.4593316039318 12.78  19.2693316039313 12.63  Z M 13.2293316039313 10  C 13.2293316039313 11.9299999999999  11.6593316039316 13.5  9.72933160393131 13.5  C 7.79933160393102 13.5  6.22933160393131 11.9299999999999  6.22933160393131 10  C 6.22933160393131 8.07000000000005  7.79933160393102 6.5  9.72933160393131 6.5  C 11.6593316039316 6.5  13.2293316039313 8.07000000000005  13.2293316039313 10  Z " fill-rule="nonzero" fill="#00ac5a" stroke="none" transform="matrix(1 0 0 1 328 626 )" />
  </g>
</svg>