<?xml version="1.0" encoding="utf-8"?>
<svg version="1.1" xmlns:xlink="http://www.w3.org/1999/xlink" width="10px" height="12px" xmlns="http://www.w3.org/2000/svg">
  <g transform="matrix(1 0 0 1 -22 -407 )">
    <path d="M 2.59999999999991 2.79999999999927  C 2.59999999999991 1.47199999999975  3.67200000000003 0.399999999999636  5 0.399999999999636  C 6.32799999999997 0.399999999999636  7.40000000000009 1.47199999999975  7.40000000000009 2.79999999999927  C 7.40000000000009 4.1279999999997  6.32799999999997 5.19999999999982  5 5.19999999999982  C 3.67200000000003 5.19999999999982  2.59999999999991 4.1279999999997  2.59999999999991 2.79999999999927  Z M 9.79999999999973 9.1840000000002  C 8.76799999999957 10.7359999999999  6.99999999999955 11.7600000000002  5 11.7600000000002  C 3 11.7600000000002  1.23199999999997 10.7359999999999  0.199999999999818 9.1840000000002  C 0.223999999999705 7.59200000000055  3.39999999999964 6.72000000000025  5 6.72000000000025  C 6.59199999999964 6.72000000000025  9.77599999999984 7.59200000000055  9.79999999999973 9.1840000000002  Z " fill-rule="nonzero" fill="#ffffff" stroke="none" fill-opacity="0.149019607843137" transform="matrix(1 0 0 1 22 407 )" />
  </g>
</svg>