<?xml version="1.0" encoding="utf-8"?>
<svg version="1.1" xmlns:xlink="http://www.w3.org/1999/xlink" width="12px" height="12px" xmlns="http://www.w3.org/2000/svg">
  <g transform="matrix(1 0 0 1 -159 -574 )">
    <path d="M 2 12  C 0.880000000000109 12  0 11.1199999999999  0 10  L 0 2  C 0 0.880000000000109  0.880000000000109 0  2 0  L 10 0  C 11.1199999999999 0  12 0.880000000000109  12 2  L 12 10  C 12 11.1199999999999  11.1199999999999 12  10 12  L 2 12  Z M 3.75 9.648193359375  L 8.6513671875 9.648193359375  L 8.6513671875 8.366455078125  L 5.29833984375 8.366455078125  L 5.29833984375 6.500244140625  L 8.461669921875 6.500244140625  L 8.461669921875 5.310791015625  L 5.29833984375 5.310791015625  L 5.29833984375 3.526611328125  L 8.6513671875 3.526611328125  L 8.6513671875 2.25  L 3.75 2.25  L 3.75 9.648193359375  Z " fill-rule="nonzero" fill="#ffffff" stroke="none" fill-opacity="0.149019607843137" transform="matrix(1 0 0 1 159 574 )" />
  </g>
</svg>