<?xml version="1.0" encoding="utf-8"?>
<svg version="1.1" xmlns:xlink="http://www.w3.org/1999/xlink" width="22px" height="26px" xmlns="http://www.w3.org/2000/svg">
  <g transform="matrix(1 0 0 1 -317 -57 )">
    <path d="M 5.59999999999991 5.80000000000018  C 5.59999999999991 2.81200000000035  8.01200000000017 0.400000000000091  11 0.400000000000091  C 13.9879999999998 0.400000000000091  16.4000000000001 2.81200000000035  16.4000000000001 5.80000000000018  C 16.4000000000001 8.78800000000001  13.9879999999998 11.2000000000003  11 11.2000000000003  C 8.01200000000017 11.2000000000003  5.59999999999991 8.78800000000001  5.59999999999991 5.80000000000018  Z M 21.7999999999997 20.1640000000002  C 19.4779999999996 23.6560000000004  15.4999999999995 25.9600000000005  11 25.9600000000005  C 6.5 25.9600000000005  2.52199999999993 23.6560000000004  0.199999999999818 20.1640000000002  C 0.253999999999905 16.5820000000003  7.39999999999964 14.6200000000003  11 14.6200000000003  C 14.5819999999999 14.6200000000003  21.7459999999996 16.5820000000003  21.7999999999997 20.1640000000002  Z " fill-rule="nonzero" fill="#ffffff" stroke="none" fill-opacity="0.149019607843137" transform="matrix(1 0 0 1 317 57 )" />
  </g>
</svg>