<?xml version="1.0" encoding="utf-8"?>
<svg version="1.1" xmlns:xlink="http://www.w3.org/1999/xlink" width="20px" height="20px" xmlns="http://www.w3.org/2000/svg">
  <g transform="matrix(1 0 0 1 -30 -442 )">
    <path d="M 18.1818181818182 16.1904761904762  C 19.1909090909091 16.1904761904762  20 15.3428571428571  20 14.2857142857143  C 20 14.2857142857143  20 3.80952380952381  20 3.80952380952381  L 15.4545454545455 3.80952380952381  C 15.4545454545455 3.80952380952381  15.4545454545455 1.9047619047619  15.4545454545455 1.9047619047619  C 15.4545454545455 0.847619047619048  14.6454545454546 0  13.6363636363636 0  C 13.6363636363636 0  10 0  10 0  C 8.99090909090908 0  8.18181818181818 0.847619047619048  8.18181818181818 1.9047619047619  C 8.18181818181818 1.9047619047619  8.18181818181818 3.80952380952381  8.18181818181818 3.80952380952381  L 3.63636363636364 3.80952380952381  C 3.63636363636364 3.80952380952381  3.63636363636364 14.2857142857143  3.63636363636364 14.2857142857143  C 3.63636363636364 15.3428571428571  4.44545454545453 16.1904761904762  5.45454545454545 16.1904761904762  C 5.45454545454545 16.1904761904762  18.1818181818182 16.1904761904762  18.1818181818182 16.1904761904762  Z M 14.5454545454545 20  C 15.5545454545455 20  16.3636363636364 19.152380952381  16.3636363636364 18.0952380952381  C 16.3636363636364 18.0952380952381  1.81818181818182 18.0952380952381  2 18.0952380952381  L 2 7.61904761904762  L 0 7.61904761904762  C 0 7.61904761904762  0 18.0952380952381  0 18.0952380952381  C 0 19.152380952381  0.809090909090897 20  1.81818181818182 20  C 1.81818181818182 20  14.5454545454545 20  14.5454545454545 20  Z M 13.6363636363636 3.80952380952381  L 10 3.80952380952381  L 10 1.9047619047619  L 13.6363636363636 1.9047619047619  L 13.6363636363636 3.80952380952381  Z M 15 9.52380952380952  L 10 13.3333333333333  L 10 6.66666666666667  L 15 9.52380952380952  Z " fill-rule="nonzero" fill="#3b5998" stroke="none" transform="matrix(1 0 0 1 30 442 )" />
  </g>
</svg>