<?xml version="1.0" encoding="utf-8"?>
<svg version="1.1" xmlns:xlink="http://www.w3.org/1999/xlink" width="18px" height="18px" xmlns="http://www.w3.org/2000/svg">
  <g transform="matrix(1 0 0 1 -322 -577 )">
    <path d="M 9 0.769999999999982  L 4 5.76999999999998  L 0 5.76999999999998  L 0 11.77  L 4 11.77  L 9 16.77  L 9 0.769999999999982  Z M 11 4.73999999999978  C 11 4.73999999999978  11 12.79  11 12.79  C 12.48 12.0599999999999  13.5 10.54  13.5 8.76999999999998  C 13.5 7  12.48 5.48000000000002  11 4.73999999999978  Z M 18 8.76999999999998  C 18 4.48999999999978  15.0100000000002 0.909999999999854  11 0  C 11 0  11 2.05999999999995  11 2.05999999999995  C 13.8899999999999 2.92000000000007  16 5.59999999999991  16 8.76999999999998  C 16 11.9400000000001  13.8899999999999 14.6199999999999  11 15.48  C 11 15.48  11 17.54  11 17.54  C 15.0100000000002 16.6300000000001  18 13.0500000000002  18 8.76999999999998  Z " fill-rule="nonzero" fill="#ffffff" stroke="none" transform="matrix(1 0 0 1 322 577 )" />
  </g>
</svg>