<?xml version="1.0" encoding="utf-8"?>
<svg version="1.1" xmlns:xlink="http://www.w3.org/1999/xlink" width="12px" height="9px" xmlns="http://www.w3.org/2000/svg">
  <g transform="matrix(1 0 0 1 -330 -228 )">
    <path d="M 9.625 0  C 9.2455 0  8.90175 0.149333333333333  8.652875 0.390666666666667  C 8.652875 0.390666666666667  7.277875 1.724  7.277875 1.724  L 4.125 4.78133333333333  C 4.125 4.78133333333333  2.347125 3.05733333333333  2.347125 3.05733333333333  C 2.09825 2.816  1.7545 2.66666666666667  1.375 2.66666666666667  C 0.6153125 2.66666666666667  0 3.26333333333333  0 4  C 0 4.368  0.154 4.70133333333333  0.402875 4.94266666666667  C 0.402875 4.94266666666667  3.152875 7.60933333333333  3.152875 7.60933333333333  C 3.40175 7.85066666666667  3.7455 8  4.125 8  C 4.5045 8  4.84825 7.85066666666667  5.097125 7.60933333333333  C 5.097125 7.60933333333333  9.222125 3.60933333333333  9.222125 3.60933333333333  C 9.222125 3.60933333333333  10.597125 2.276  10.597125 2.276  C 10.846 2.03466666666667  11 1.70133333333333  11 1.33333333333333  C 11 0.596666666666666  10.3846875 0  9.625 0  Z " fill-rule="nonzero" fill="#ffffff" stroke="none" transform="matrix(1 0 0 1 330 228 )" />
  </g>
</svg>