<?xml version="1.0" encoding="utf-8"?>
<svg version="1.1" xmlns:xlink="http://www.w3.org/1999/xlink" width="20px" height="5px" xmlns="http://www.w3.org/2000/svg">
  <g transform="matrix(1 0 0 1 -339 -40 )">
    <path d="M 2.5 5  C 3.875 5  5 3.875  5 2.5  C 5 1.125  3.875 0  2.5 0  C 1.125 0  0 1.125  0 2.5  C 0 3.875  1.125 5  2.5 5  Z M 17.5 5  C 18.875 5  20 3.875  20 2.5  C 20 1.125  18.875 0  17.5 0  C 16.125 0  15 1.125  15 2.5  C 15 3.875  16.125 5  17.5 5  Z M 12.5 2.5  C 12.5 1.125  11.375 0  10 0  C 8.625 0  7.5 1.125  7.5 2.5  C 7.5 3.875  8.625 5  10 5  C 11.375 5  12.5 3.875  12.5 2.5  Z " fill-rule="nonzero" fill="#ffffff" stroke="none" transform="matrix(1 0 0 1 339 40 )" />
  </g>
</svg>