<?xml version="1.0" encoding="utf-8"?>
<svg version="1.1" xmlns:xlink="http://www.w3.org/1999/xlink" width="24px" height="16px" xmlns="http://www.w3.org/2000/svg">
  <g transform="matrix(1 0 0 1 -265 -575 )">
    <path d="M 24 11  C 24 8.36000000000013  21.9499999999998 6.2199999999998  19.3499999999999 6.03999999999996  C 18.6700000000001 2.59000000000015  15.6399999999999 0  12 0  C 9.11000000000013 0  6.59999999999991 1.63999999999987  5.34999999999991 4.03999999999996  C 2.34000000000015 4.36000000000013  0 6.90999999999985  0 10  C 0 13.3099999999999  2.69000000000005 16  6 16  C 6 16  19 16  19 16  C 21.7600000000002 16  24 13.7600000000002  24 11  Z M 14 9  L 17 9  L 12 14  L 7 9  L 10 9  L 10 5  L 14 5  L 14 9  Z " fill-rule="nonzero" fill="#ffffff" stroke="none" transform="matrix(1 0 0 1 265 575 )" />
  </g>
</svg>