<?xml version="1.0" encoding="utf-8"?>
<svg version="1.1" xmlns:xlink="http://www.w3.org/1999/xlink" width="38px" height="11px" xmlns="http://www.w3.org/2000/svg">
  <g transform="matrix(1 0 0 1 -169 -35 )">
    <path d="M 17.7966767405696 10.8026749330969  C 18.1965574140363 10.9561747419465  18.6072466952965 11.0043836219945  18.9999999994493 10.9602378784864  C 19.3927533039041 11.0043836220886  19.8034425855744 10.9561747420962  20.2033232594304 10.8026749330971  L 35.3780827575511 4.97763052145649  C 36.7058742136369 4.46793913543797  37.3454417142257 3.01580013213578  36.8316452588888 1.67731460486073  C 36.3178488035528 0.338829077585672  34.8708868731496 -0.312366319115881  33.5430954170638 0.197325066902636  L 18.9999316821818 5.77987013084839  L 4.45690458293575 0.197325066902408  C 3.12911312685037 -0.312366319116109  1.68215119644765 0.338829077585444  1.16835474111122 1.6773146048605  C 0.654558285774783 3.01580013213555  1.29412578636357 4.46793913543775  2.62191724244894 4.97763052145626  L 17.7966767405696 10.8026749330969  Z " fill-rule="nonzero" fill="#ffffff" stroke="none" fill-opacity="0.149019607843137" transform="matrix(1 0 0 1 169 35 )" />
  </g>
</svg>