<?xml version="1.0" encoding="utf-8"?>
<svg version="1.1" xmlns:xlink="http://www.w3.org/1999/xlink" width="18px" height="20px" xmlns="http://www.w3.org/2000/svg">
  <g transform="matrix(1 0 0 1 -179 -105 )">
    <path d="M 16 20  C 17.0999999999999 20  18 19.1  18 18  C 18 18  18 4  18 4  C 18 2.89999999999998  17.0999999999999 2  16 2  C 16 2  11.8200000000002 2  11.8200000000002 2  C 11.4000000000001 0.839999999999975  10.3000000000002 0  9 0  C 7.69999999999982 0  6.59999999999991 0.839999999999975  6.17999999999984 2  C 6.17999999999984 2  2 2  2 2  C 0.900000000000091 2  0 2.89999999999998  0 4  C 0 4  0 18  0 18  C 0 19.1  0.900000000000091 20  2 20  C 2 20  16 20  16 20  Z M 10 3  C 10 3.55000000000001  9.55000000000018 4  9 4  C 8.44999999999982 4  8 3.55000000000001  8 3  C 8 2.44999999999999  8.44999999999982 2  9 2  C 9.55000000000018 2  10 2.44999999999999  10 3  Z M 9 12  C 7.34000000000015 12  6 10.66  6 9  C 6 7.33999999999997  7.34000000000015 6  9 6  C 10.6599999999999 6  12 7.33999999999997  12 9  C 12 10.66  10.6599999999999 12  9 12  Z M 15 16.6  C 15 16.6  15 18  15 18  L 3 18  C 3 18  3 16.6  3 16.6  C 3 14.6  7 13.5  9 13.5  C 11 13.5  15 14.6  15 16.6  Z " fill-rule="nonzero" fill="#ffffff" stroke="none" transform="matrix(1 0 0 1 179 105 )" />
  </g>
</svg>