<?xml version="1.0" encoding="utf-8"?>
<svg version="1.1" xmlns:xlink="http://www.w3.org/1999/xlink" width="16px" height="21px" xmlns="http://www.w3.org/2000/svg">
  <g transform="matrix(1 0 0 1 -180 -104 )">
    <path d="M 16 9  C 16 7.89999999999998  15.0999999999999 7  14 7  L 13 7  C 13 7  13 5  13 5  C 13 2.24000000000001  10.7600000000002 0  8 0  C 5.23999999999978 0  3 2.24000000000001  3 5  C 3 5  4.90000000000009 5  4.90000000000009 5  C 4.90000000000009 3.29000000000002  6.28999999999996 1.89999999999998  8 1.89999999999998  C 9.71000000000004 1.89999999999998  11.0999999999999 3.29000000000002  11.0999999999999 5  C 11.0999999999999 5  11.0999999999999 7  11.0999999999999 7  C 11.0999999999999 7  2 7  2 7  C 0.900000000000091 7  0 7.89999999999998  0 9  C 0 9  0 19  0 19  C 0 20.1  0.900000000000091 21  2 21  C 2 21  14 21  14 21  C 15.0999999999999 21  16 20.1  16 19  C 16 19  16 9  16 9  Z M 10 14  C 10 15.1  9.09999999999991 16  8 16  C 6.90000000000009 16  6 15.1  6 14  C 6 12.9  6.90000000000009 12  8 12  C 9.09999999999991 12  10 12.9  10 14  Z " fill-rule="nonzero" fill="#ffffff" stroke="none" transform="matrix(1 0 0 1 180 104 )" />
  </g>
</svg>