<?xml version="1.0" encoding="utf-8"?>
<svg version="1.1" xmlns:xlink="http://www.w3.org/1999/xlink" width="22px" height="14px" xmlns="http://www.w3.org/2000/svg">
  <g transform="matrix(1 0 0 1 -30 -180 )">
    <path d="M 13 14  C 13.5500000000002 14  14 13.5500000000002  14 13  C 14 13  14 1  14 1  C 14 0.449999999999818  13.5500000000002 0  13 0  C 13 0  1 0  1 0  C 0.449999999999818 0  0 0.449999999999818  0 1  C 0 1  0 13  0 13  C 0 13.5500000000002  0.449999999999818 14  1 14  C 1 14  13 14  13 14  Z M 20 0  L 20 14  L 22 14  L 22 0  L 20 0  Z M 16 14  L 18 14  L 18 0  L 16 0  L 16 14  Z M 7 7.25  C 5.76000000000022 7.25  4.75 6.23999999999978  4.75 5  C 4.75 3.76000000000022  5.76000000000022 2.75  7 2.75  C 8.23999999999978 2.75  9.25 3.76000000000022  9.25 5  C 9.25 6.23999999999978  8.23999999999978 7.25  7 7.25  Z M 11.5 11.25  C 11.5 11.25  11.5 12  11.5 12  L 2.5 12  C 2.5 12  2.5 11.25  2.5 11.25  C 2.5 9.75  5.5 9  7 9  C 8.5 9  11.5 9.75  11.5 11.25  Z " fill-rule="nonzero" fill="#00ac5a" stroke="none" transform="matrix(1 0 0 1 30 180 )" />
  </g>
</svg>