<?xml version="1.0" encoding="utf-8"?>
<svg version="1.1" xmlns:xlink="http://www.w3.org/1999/xlink" width="20px" height="20px" xmlns="http://www.w3.org/2000/svg">
  <g transform="matrix(1 0 0 1 -113 -292 )">
    <path d="M 20 14  C 20 14  20 2  20 2  C 20 0.900000000000006  19.0999999999999 0  18 0  C 18 0  6 0  6 0  C 4.90000000000009 0  4 0.900000000000006  4 2  C 4 2  4 14  4 14  C 4 15.1  4.90000000000009 16  6 16  C 6 16  18 16  18 16  C 19.0999999999999 16  20 15.1  20 14  Z M 12 3  L 16 3  L 16 5  L 13 5  C 13 5  13 10.5  13 10.5  C 13 11.88  11.8800000000001 13  10.5 13  C 9.11999999999989 13  8 11.88  8 10.5  C 8 9.12  9.11999999999989 8  10.5 8  C 11.0700000000002 8  11.5799999999999 8.19  12 8.50999999999999  C 12 8.50999999999999  12 3  12 3  Z M 2 18  L 2 4  L 0 4  C 0 4  0 18  0 18  C 0 19.1  0.900000000000091 20  2 20  C 2 20  16 20  16 20  L 16 18  L 2 18  Z " fill-rule="nonzero" fill="#00ac5a" stroke="none" transform="matrix(1 0 0 1 113 292 )" />
  </g>
</svg>