<?xml version="1.0" encoding="utf-8"?>
<svg version="1.1" xmlns:xlink="http://www.w3.org/1999/xlink" width="20px" height="19px" xmlns="http://www.w3.org/2000/svg">
  <g transform="matrix(1 0 0 1 -29 -611 )">
    <path d="M 20 17  C 20 17  20 4  20 4  L 14 4  C 14 4  14 2  14 2  C 14 0.8900000000001  13.1099999999997 0  12 0  C 12 0  8 0  8 0  C 6.89000000000033 0  6 0.8900000000001  6 2  C 6 2  6 4  6 4  L 0 4  C 0 4  0 17  0 17  C 0 18.1099999999999  0.890000000000327 19  2 19  C 2 19  18 19  18 19  C 19.1099999999997 19  20 18.1099999999999  20 17  Z M 12 4  L 8 4  L 8 2  L 12 2  L 12 4  Z M 14.5 11  L 7 16  L 7 7  L 14.5 11  Z " fill-rule="nonzero" fill="#8d8d8d" stroke="none" transform="matrix(1 0 0 1 29 611 )" />
  </g>
</svg>