<?xml version="1.0" encoding="utf-8"?>
<svg version="1.1" xmlns:xlink="http://www.w3.org/1999/xlink" width="18px" height="19px" xmlns="http://www.w3.org/2000/svg">
  <g transform="matrix(1 0 0 1 -342 -30 )">
    <path d="M 17.4899999999998 16.8888888888889  L 12.5 11.6111111111111  L 11.71 11.6111111111111  C 11.71 11.6111111111111  11.4299999999998 11.3261111111107  11.4299999999998 11.3261111111107  C 12.4099999999999 10.1227777777779  13 8.56055555555521  13 6.86111111111111  C 13 3.07166666666651  10.0899999999997 0  6.5 0  C 2.90999999999985 0  0 3.07166666666651  0 6.86111111111111  C 0 10.6505555555557  2.90999999999985 13.7222222222222  6.5 13.7222222222222  C 8.10999999999967 13.7222222222222  9.58999999999969 13.0994444444443  10.73 12.0650000000003  C 10.73 12.0650000000003  11 12.3605555555556  11 12.3605555555556  L 11 13.1944444444444  L 16 18.4616666666664  L 17.4899999999998 16.8888888888889  Z M 11 6.86111111111111  C 11 9.48944444444421  8.98999999999978 11.6111111111111  6.5 11.6111111111111  C 4.01000000000022 11.6111111111111  2 9.48944444444421  2 6.86111111111111  C 2 4.23277777777801  4.01000000000022 2.11111111111111  6.5 2.11111111111111  C 8.98999999999978 2.11111111111111  11 4.23277777777801  11 6.86111111111111  Z " fill-rule="nonzero" fill="#00ac5a" stroke="none" transform="matrix(1 0 0 1 342 30 )" />
  </g>
</svg>