<?xml version="1.0" encoding="utf-8"?>
<svg version="1.1" xmlns:xlink="http://www.w3.org/1999/xlink" width="20px" height="20px" xmlns="http://www.w3.org/2000/svg">
  <g transform="matrix(1 0 0 1 -328 -626 )">
    <path d="M 19.2693316039317 12.6300000000001  C 19.2693316039317 12.6300000000001  17.1593316039316 10.98  17.1593316039316 10.98  C 17.1993316039316 10.6600000000001  17.2293316039318 10.3399999999999  17.2293316039318 10  C 17.2293316039318 9.66000000000008  17.1993316039316 9.33999999999992  17.1593316039316 9.01999999999998  C 17.1593316039316 9.01999999999998  19.2693316039317 7.36999999999989  19.2693316039317 7.36999999999989  C 19.4593316039318 7.22000000000003  19.5093316039315 6.95000000000005  19.3893316039316 6.73000000000002  C 19.3893316039316 6.73000000000002  17.3893316039316 3.26999999999998  17.3893316039316 3.26999999999998  C 17.2693316039317 3.04999999999995  16.9993316039318 2.97000000000003  16.7793316039315 3.04999999999995  C 16.7793316039315 3.04999999999995  14.2893316039317 4.04999999999995  14.2893316039317 4.04999999999995  C 13.7693316039317 3.65000000000009  13.2093316039318 3.31999999999994  12.5993316039317 3.06999999999994  C 12.5993316039317 3.06999999999994  12.2193316039316 0.420000000000073  12.2193316039316 0.420000000000073  C 12.1893316039318 0.180000000000064  11.9793316039318 0  11.7293316039318 0  C 11.7293316039318 0  7.72933160393177 0  7.72933160393177 0  C 7.47933160393177 0  7.26933160393173 0.180000000000064  7.23933160393153 0.420000000000073  C 7.23933160393153 0.420000000000073  6.85933160393142 3.06999999999994  6.85933160393142 3.06999999999994  C 6.24933160393175 3.31999999999994  5.68933160393135 3.66000000000008  5.16933160393137 4.04999999999995  C 5.16933160393137 4.04999999999995  2.67933160393159 3.04999999999995  2.67933160393159 3.04999999999995  C 2.44933160393157 2.96000000000004  2.18933160393135 3.04999999999995  2.06933160393146 3.26999999999998  C 2.06933160393146 3.26999999999998  0.0693316039314595 6.73000000000002  0.0693316039314595 6.73000000000002  C -0.0606683960686496 6.95000000000005  -0.000668396068249422 7.22000000000003  0.18933160393135 7.36999999999989  C 0.18933160393135 7.36999999999989  2.29933160393148 9.01999999999998  2.29933160393148 9.01999999999998  C 2.25933160393151 9.33999999999992  2.22933160393177 9.67000000000007  2.22933160393177 10  C 2.22933160393177 10.3299999999999  2.25933160393151 10.6600000000001  2.29933160393148 10.98  C 2.29933160393148 10.98  0.18933160393135 12.6300000000001  0.18933160393135 12.6300000000001  C -0.000668396068249422 12.78  -0.0506683960684313 13.05  0.0693316039314595 13.27  C 0.0693316039314595 13.27  2.06933160393146 16.73  2.06933160393146 16.73  C 2.18933160393135 16.95  2.45933160393133 17.03  2.67933160393159 16.95  C 2.67933160393159 16.95  5.16933160393137 15.95  5.16933160393137 15.95  C 5.68933160393135 16.3499999999999  6.24933160393175 16.6800000000001  6.85933160393142 16.9300000000001  C 6.85933160393142 16.9300000000001  7.23933160393153 19.5799999999999  7.23933160393153 19.5799999999999  C 7.26933160393173 19.8199999999999  7.47933160393177 20  7.72933160393177 20  C 7.72933160393177 20  11.7293316039318 20  11.7293316039318 20  C 11.9793316039318 20  12.1893316039318 19.8199999999999  12.2193316039316 19.5799999999999  C 12.2193316039316 19.5799999999999  12.5993316039317 16.9300000000001  12.5993316039317 16.9300000000001  C 13.2093316039318 16.6800000000001  13.7693316039317 16.3399999999999  14.2893316039317 15.95  C 14.2893316039317 15.95  16.7793316039315 16.95  16.7793316039315 16.95  C 17.0093316039315 17.04  17.2693316039317 16.95  17.3893316039316 16.73  C 17.3893316039316 16.73  19.3893316039316 13.27  19.3893316039316 13.27  C 19.5093316039315 13.05  19.4593316039318 12.78  19.2693316039317 12.6300000000001  Z M 13.2293316039313 10  C 13.2293316039313 11.9300000000001  11.6593316039312 13.5  9.72933160393131 13.5  C 7.79933160393148 13.5  6.22933160393131 11.9300000000001  6.22933160393131 10  C 6.22933160393131 8.06999999999994  7.79933160393148 6.5  9.72933160393131 6.5  C 11.6593316039312 6.5  13.2293316039313 8.06999999999994  13.2293316039313 10  Z " fill-rule="nonzero" fill="#ffffff" stroke="none" transform="matrix(1 0 0 1 328 626 )" />
  </g>
</svg>