<?xml version="1.0" encoding="utf-8"?>
<svg version="1.1" xmlns:xlink="http://www.w3.org/1999/xlink" width="18px" height="18px" xmlns="http://www.w3.org/2000/svg">
  <g transform="matrix(1 0 0 1 -103 -628 )">
    <path d="M 16 18  C 17.0999999999999 18  18 17.1  18 16  C 18 16  18 2  18 2  C 18 0.899999999999977  17.0999999999999 0  16 0  C 16 0  2 0  2 0  C 0.900000000000091 0  0 0.899999999999977  0 2  C 0 2  0 16  0 16  C 0 17.1  0.900000000000091 18  2 18  C 2 18  16 18  16 18  Z M 4 14  L 4 7  L 6 7  L 6 14  L 4 14  Z M 8 4  L 10 4  L 10 14  L 8 14  L 8 4  Z M 14 10  L 14 14  L 12 14  L 12 10  L 14 10  Z " fill-rule="nonzero" fill="#ffffff" stroke="none" transform="matrix(1 0 0 1 103 628 )" />
  </g>
</svg>