<?xml version="1.0" encoding="utf-8"?>
<svg version="1.1" xmlns:xlink="http://www.w3.org/1999/xlink" width="20px" height="21px" xmlns="http://www.w3.org/2000/svg">
  <g transform="matrix(1 0 0 1 -328 -625 )">
    <path d="M 5 4.66666666666659  C 5 2.24583333333329  7.23333333333333 0.291666666666659  10 0.291666666666659  C 12.7666666666667 0.291666666666659  15 2.24583333333329  15 4.66666666666659  C 15 7.08749999999988  12.7666666666667 9.04166666666651  10 9.04166666666651  C 7.23333333333333 9.04166666666651  5 7.08749999999988  5 4.66666666666659  Z M 20 16.3041666666667  C 17.85 19.1333333333334  14.1666666666667 21  10 21  C 5.83333333333334 21  2.15 19.1333333333334  0 16.3041666666667  C 0.0500000000000007 13.4020833333335  6.66666666666666 11.8125000000001  10 11.8125000000001  C 13.3166666666667 11.8125000000001  19.95 13.4020833333335  20 16.3041666666667  Z " fill-rule="nonzero" fill="#aaaaaa" stroke="none" transform="matrix(1 0 0 1 328 625 )" />
  </g>
</svg>