<?xml version="1.0" encoding="utf-8"?>
<svg version="1.1" xmlns:xlink="http://www.w3.org/1999/xlink" width="12px" height="12px" xmlns="http://www.w3.org/2000/svg">
  <g transform="matrix(1 0 0 1 -189 -175 )">
    <path d="M 2 12  C 0.880000000000109 12  0 11.1199999999999  0 10  L 0 2  C 0 0.880000000000109  0.880000000000109 0  2 0  L 10 0  C 11.1199999999999 0  12 0.880000000000109  12 2  L 12 10  C 12 11.1199999999999  11.1199999999999 12  10 12  L 2 12  Z M 6.22111816518009 2.2236328125  C 4.07805175893009 2.2236328125  2.71940918080509 3.664306640625  2.71940918080509 6.04833984375  C 2.71940918080509 8.4375  4.06779785268009 9.878173828125  6.22111816518009 9.878173828125  C 8.03605957143009 9.878173828125  9.30241699330509 8.832275390625  9.47673339955509 7.181396484375  C 9.47673339955509 7.181396484375  7.96940918080509 7.181396484375  7.96940918080509 7.181396484375  C 7.80534668080509 8.05810546875  7.14396972768009 8.596435546875  6.22624511830509 8.596435546875  C 5.04191894643009 8.596435546875  4.29851074330509 7.622314453125  4.29851074330509 6.043212890625  C 4.29851074330509 4.484619140625  5.05217285268009 3.50537109375  6.22111816518009 3.50537109375  C 7.12346191518009 3.50537109375  7.82072754018009 4.10009765625  7.96428222768009 5.007568359375  C 7.96428222768009 5.007568359375  9.47160644643009 5.007568359375  9.47160644643009 5.007568359375  C 9.35368652455509 3.3515625  8.00017089955509 2.2236328125  6.22111816518009 2.2236328125  Z " fill-rule="nonzero" fill="#ffffff" stroke="none" fill-opacity="0.149019607843137" transform="matrix(1 0 0 1 189 175 )" />
  </g>
</svg>