<?xml version="1.0" encoding="utf-8"?>
<svg version="1.1" xmlns:xlink="http://www.w3.org/1999/xlink" width="24px" height="24px" xmlns="http://www.w3.org/2000/svg">
  <defs>
    <mask fill="white" id="clip945">
      <path d="M 0 12  C 0 18.6274169976  5.3725830024 24  12 24  C 18.6274169976 24  24 18.6274169976  24 12  C 24 5.3725830024  18.6274169976 0  12 0  C 5.3725830024 0  0 5.3725830024  0 12  Z " fill-rule="evenodd" />
    </mask>
  </defs>
  <g transform="matrix(1 0 0 1 -15 -401 )">
    <path d="M 0 12  C 0 18.6274169976  5.3725830024 24  12 24  C 18.6274169976 24  24 18.6274169976  24 12  C 24 5.3725830024  18.6274169976 0  12 0  C 5.3725830024 0  0 5.3725830024  0 12  Z " fill-rule="nonzero" fill="#000000" stroke="none" transform="matrix(1 0 0 1 15 401 )" />
    <path d="M 0 12  C 0 18.6274169976  5.3725830024 24  12 24  C 18.6274169976 24  24 18.6274169976  24 12  C 24 5.3725830024  18.6274169976 0  12 0  C 5.3725830024 0  0 5.3725830024  0 12  Z " stroke-width="2" stroke="#ffffff" fill="none" stroke-opacity="0.101960784313725" transform="matrix(1 0 0 1 15 401 )" mask="url(#clip945)" />
  </g>
</svg>