<?xml version="1.0" encoding="utf-8"?>
<svg version="1.1" xmlns:xlink="http://www.w3.org/1999/xlink" width="22px" height="20px" xmlns="http://www.w3.org/2000/svg">
  <g transform="matrix(1 0 0 1 -177 -103 )">
    <path d="M 18 20  L 4 20  C 1.76000000000022 20  0 18.4  0 16.3636363636364  L 0 3.63636363636364  C 0 1.59999999999999  1.76000000000022 0  4 0  L 18 0  C 20.2399999999998 0  22 1.59999999999999  22 3.63636363636364  L 22 16.3636363636364  C 22 18.4  20.2399999999998 20  18 20  Z M 16.0699999999997 13.1318181818182  C 16.6549999999997 12.2931818181818  17 11.2977272727273  17 10.2272727272727  C 17 7.21363636363637  14.3149999999996 4.77272727272727  11 4.77272727272727  L 11 2.72727272727273  L 8 5.45454545454545  L 11 8.18181818181818  C 11 8.18181818181818  11 6.13636363636364  11 6.13636363636364  C 13.4825000000001 6.13636363636364  15.5 7.97045454545453  15.5 10.2272727272727  C 15.5 10.9159090909091  15.3125 11.5704545454546  14.9750000000004 12.1363636363636  C 14.9750000000004 12.1363636363636  16.0699999999997 13.1318181818182  16.0699999999997 13.1318181818182  Z M 11 12.2727272727271  L 11 14.3181818181816  C 8.51749999999993 14.3181818181816  6.5 12.4840909090907  6.5 10.2272727272725  C 6.5 9.53863636363616  6.6875 8.88409090909068  7.02499999999964 8.31818181818159  C 7.02499999999964 8.31818181818159  5.93000000000029 7.32272727272707  5.93000000000029 7.32272727272707  C 5.34500000000025 8.16136363636345  5 9.15681818181797  5 10.2272727272725  C 5 13.2409090909089  7.6850000000004 15.681818181818  11 15.681818181818  C 11 15.681818181818  11 17.7272727272725  11 17.7272727272725  L 14 14.9999999999998  L 11 12.2727272727271  Z " fill-rule="nonzero" fill="#ffffff" stroke="none" transform="matrix(1 0 0 1 177 103 )" />
  </g>
</svg>