<?xml version="1.0" encoding="utf-8"?>
<svg version="1.1" xmlns:xlink="http://www.w3.org/1999/xlink" width="12px" height="11px" xmlns="http://www.w3.org/2000/svg">
  <g transform="matrix(1 0 0 1 -285 -190 )">
    <path d="M 6 11  C 6 11  5.13 10.208719346049  5.13 10.208719346049  C 2.04 7.40926430517711  0 5.56294277929155  0 3.29700272479564  C 0 1.45068119891008  1.452 0  3.3 0  C 4.344 0  5.346 0.485558583106265  6 1.25286103542234  C 6.654 0.485558583106265  7.656 0  8.7 0  C 10.548 0  12 1.45068119891008  12 3.29700272479564  C 12 5.56294277929155  9.96 7.40926430517711  6.87 10.2147138964578  C 6.87 10.2147138964578  6 11  6 11  Z " fill-rule="nonzero" fill="#8d8d8d" stroke="none" transform="matrix(1 0 0 1 285 190 )" />
  </g>
</svg>