<?xml version="1.0" encoding="utf-8"?>
<svg version="1.1" xmlns:xlink="http://www.w3.org/1999/xlink" width="19px" height="14px" xmlns="http://www.w3.org/2000/svg">
  <g transform="matrix(1 0 0 1 -15 -636 )">
    <path d="M 8 8  L 0 8  L 0 10  L 8 10  L 8 8  Z M 0 0  L 0 2  L 12 2  L 12 0  L 0 0  Z M 0 4  L 0 6  L 12 6  L 12 4  L 0 4  Z M 19 0  L 14 0  C 14 0  14 8.18000000000006  14 8.18000000000006  C 13.6899999999996 8.06999999999994  13.3500000000004 8  13 8  C 11.3400000000001 8  10 9.33999999999992  10 11  C 10 12.6600000000001  11.3400000000001 14  13 14  C 14.6599999999999 14  16 12.6600000000001  16 11  C 16 11  16 2  16 2  L 19 2  L 19 0  Z " fill-rule="nonzero" fill="#ffffff" stroke="none" transform="matrix(1 0 0 1 15 636 )" />
  </g>
</svg>