<?xml version="1.0" encoding="utf-8"?>
<svg version="1.1" xmlns:xlink="http://www.w3.org/1999/xlink" width="22px" height="22px" xmlns="http://www.w3.org/2000/svg">
  <g transform="matrix(1 0 0 1 -107 -480 )">
    <path d="M 18 22  L 4 22  C 1.76000000000022 22  0 20.24  0 18  L 0 4  C 0 1.76  1.76000000000022 0  4 0  L 18 0  C 20.2399999999998 0  22 1.76  22 4  L 22 18  C 22 20.24  20.2399999999998 22  18 22  Z M 16.0700000000002 14.445  C 16.6550000000002 13.5225  17 12.4275  17 11.25  C 17 7.935  14.3150000000001 5.25  11 5.25  L 11 3  L 8 6  L 11 9  C 11 9  11 6.75  11 6.75  C 13.4825000000001 6.75  15.5 8.7675  15.5 11.25  C 15.5 12.0075  15.3125 12.7275  14.9749999999999 13.35  C 14.9749999999999 13.35  16.0700000000002 14.445  16.0700000000002 14.445  Z M 11 13.4999999999998  L 11 15.7499999999998  C 8.51749999999993 15.7499999999998  6.5 13.7324999999998  6.5 11.2499999999998  C 6.5 10.4924999999998  6.6875 9.77249999999978  7.02500000000009 9.14999999999978  C 7.02500000000009 9.14999999999978  5.92999999999984 8.05499999999978  5.92999999999984 8.05499999999978  C 5.3449999999998 8.97749999999978  5 10.0724999999998  5 11.2499999999998  C 5 14.5649999999998  7.68499999999995 17.2499999999998  11 17.2499999999998  C 11 17.2499999999998  11 19.4999999999998  11 19.4999999999998  L 14 16.4999999999998  L 11 13.4999999999998  Z " fill-rule="nonzero" fill="#ffffff" stroke="none" transform="matrix(1 0 0 1 107 480 )" />
  </g>
</svg>