<?xml version="1.0" encoding="utf-8"?>
<svg version="1.1" xmlns:xlink="http://www.w3.org/1999/xlink" width="18px" height="19px" xmlns="http://www.w3.org/2000/svg">
  <g transform="matrix(1 0 0 1 -26 -204 )">
    <path d="M 4.83333333333348 3.87323943661977  C 4.83333333333348 1.73004694835709  6.6944444444448 0  9 0  C 11.3055555555557 0  13.166666666667 1.73004694835709  13.166666666667 3.87323943661977  C 13.166666666667 6.01643192488245  11.3055555555557 7.74647887323954  9 7.74647887323954  C 6.6944444444448 7.74647887323954  4.83333333333348 6.01643192488245  4.83333333333348 3.87323943661977  Z M 17.333333333333 14.1760563380276  C 15.5416666666665 16.6807511737088  12.4722222222222 18.333333333333  9 18.333333333333  C 5.52777777777737 18.333333333333  2.45833333333303 16.6807511737088  0.666666666666515 14.1760563380276  C 0.70833333333303 11.6068075117373  6.22222222222217 10.1995305164319  9 10.1995305164319  C 11.7638888888887 10.1995305164319  17.2916666666665 11.6068075117373  17.333333333333 14.1760563380276  Z " fill-rule="nonzero" fill="#ffffff" stroke="none" fill-opacity="0.149019607843137" transform="matrix(1 0 0 1 26 204 )" />
  </g>
</svg>